<?xml version="1.0" encoding="utf-8"?>
<!-- Generator: Adobe Illustrator 24.1.2, SVG Export Plug-In . SVG Version: 6.00 Build 0)  -->
<svg version="1.1" id="Layer_1" xmlns="http://www.w3.org/2000/svg" xmlns:xlink="http://www.w3.org/1999/xlink" x="0px" y="0px"
	 viewBox="0 0 5 5" style="enable-background:new 0 0 5 5;" xml:space="preserve">
<style type="text/css">
	.st0{fill:#BF9FA0;stroke:#FFFFFF;stroke-width:2.668777e-02;stroke-miterlimit:10;}
	.st1{fill:#FFFFFF;}
</style>
<circle class="st0" cx="2.5" cy="2.5" r="2.2"/>
<g>
	<g>
		<path class="st1" d="M1.2,0.4c0.3,0.3,0.4,0.7,0.5,1.2C1.7,2,1.8,2.5,1.8,3c0,0.2-0.1,0.4,0,0.6C1.8,3.8,2,3.8,2.2,3.9
			c0.2,0,0.4,0,0.5,0c0.3,0,0.5-0.2,0.7-0.2c0.2,0,0.5,0,0.7,0.1c0.2,0,0.4,0.1,0.6,0C5,3.6,5.1,3.3,4.8,3.1C4.5,2.8,4,2.8,3.6,2.9
			c-0.2,0-0.4,0-0.7,0.1c-0.1,0-0.3,0.1-0.4,0C2.4,2.8,2.3,2.6,2.3,2.5c0-0.3,0-0.5,0-0.8c0-0.3,0-0.6-0.1-0.8c0-0.2,0-0.4-0.2-0.6
			C1.9,0.1,1.7,0.1,1.5,0c-0.1,0-0.1,0.1,0,0.2c0.2,0,0.4,0.1,0.5,0.3c0.1,0.2,0.1,0.5,0.1,0.7c0,0.4,0,0.9,0.1,1.3
			c0,0.3,0.1,0.6,0.4,0.6c0.2,0,0.4,0,0.6,0c0.2,0,0.4,0,0.7,0C4,3,4.3,3,4.5,3.1c0.2,0.1,0.6,0.3,0.2,0.5C4.5,3.7,4.2,3.6,4,3.5
			c-0.2,0-0.4-0.1-0.6-0.1c-0.2,0-0.3,0.1-0.5,0.1C2.7,3.7,2.5,3.7,2.3,3.7c-0.1,0-0.2,0-0.3-0.1C1.8,3.5,1.9,3.4,1.9,3.2
			c0-0.2,0-0.5,0-0.7c0-0.8-0.1-1.7-0.6-2.3C1.2,0.2,1.1,0.3,1.2,0.4L1.2,0.4z"/>
	</g>
</g>
<g>
	<g>
		<path class="st1" d="M2.5,0.2c0.3,0.5,0.4,1.1,0.3,1.7c0,0.2-0.1,0.6,0.1,0.6c0.1,0,0.2,0,0.3,0c0.1-0.1,0.3-0.2,0.4-0.2
			c0.1,0,0.3-0.1,0.5-0.1c0.2,0,0.3,0,0.5,0C4.8,2.2,5.1,2,5,1.8C4.8,1.6,4.5,1.5,4.3,1.5c-0.1,0-0.3,0-0.4,0.1
			C3.8,1.7,3.7,1.8,3.5,1.8c-0.1,0-0.1-0.1-0.1-0.2c0-0.1,0-0.2,0-0.3c0-0.2,0-0.4,0-0.6c0-0.3-0.1-0.6-0.4-0.6
			c-0.1,0-0.1,0.2,0,0.2c0.3,0,0.3,0.5,0.3,0.8c0,0.1,0,0.3,0,0.4c0,0.1,0,0.3,0,0.4C3.3,2,3.6,2,3.8,1.9C4,1.8,4.2,1.7,4.5,1.7
			c0.1,0,0.3,0.1,0.3,0.2C4.9,2,4.6,2.1,4.5,2.1c-0.1,0-0.3,0-0.4,0c-0.1,0-0.3,0-0.4,0.1c-0.1,0-0.2,0.1-0.3,0.1
			C3.3,2.3,3.2,2.4,3,2.4C2.9,2.4,3,2.2,3,2.1c0-0.1,0-0.3,0-0.4c0-0.5,0-1.1-0.3-1.6C2.6,0,2.5,0.1,2.5,0.2L2.5,0.2z"/>
	</g>
</g>
</svg>
